<svg width="20" height="20" viewBox="0 0 20 20" fill="none" xmlns="http://www.w3.org/2000/svg">
<path d="M2.08337 10L3.75004 10.8333" stroke="#84909A" stroke-width="1.5" stroke-linecap="round" stroke-linejoin="round"/>
<path d="M17.9167 10.4166L16.25 10.8333" stroke="#84909A" stroke-width="1.5" stroke-linecap="round" stroke-linejoin="round"/>
<path d="M6.66663 14.5833L6.87135 14.0715C7.1758 13.3104 7.32803 12.9298 7.64547 12.7149C7.9629 12.5 8.37279 12.5 9.19254 12.5H10.8074C11.6271 12.5 12.037 12.5 12.3545 12.7149C12.6719 12.9298 12.8241 13.3104 13.1285 14.0715L13.3333 14.5833" stroke="#84909A" stroke-width="1.5" stroke-linecap="round" stroke-linejoin="round"/>
<path d="M1.66663 14.1666V16.5683C1.66663 16.8839 1.86725 17.1725 2.18486 17.3136C2.39094 17.4052 2.58778 17.5 2.82544 17.5H4.25781C4.49548 17.5 4.69231 17.4052 4.89839 17.3136C5.216 17.1725 5.41663 16.8839 5.41663 16.5683V15" stroke="#84909A" stroke-width="1.5" stroke-linecap="round" stroke-linejoin="round"/>
<path d="M14.5834 15V16.5683C14.5834 16.8839 14.784 17.1725 15.1016 17.3136C15.3077 17.4052 15.5045 17.5 15.7422 17.5H17.1745C17.4122 17.5 17.609 17.4052 17.8151 17.3136C18.1327 17.1725 18.3334 16.8839 18.3334 16.5683V14.1666" stroke="#84909A" stroke-width="1.5" stroke-linecap="round" stroke-linejoin="round"/>
<path d="M16.6666 7.08329L17.5 6.66663" stroke="#84909A" stroke-width="1.5" stroke-linecap="round" stroke-linejoin="round"/>
<path d="M3.33333 7.08329L2.5 6.66663" stroke="#84909A" stroke-width="1.5" stroke-linecap="round" stroke-linejoin="round"/>
<path d="M3.75 7.5L4.65692 4.77924C5.0236 3.67921 5.20693 3.12919 5.64342 2.8146C6.07989 2.5 6.65966 2.5 7.8192 2.5H12.1808C13.3403 2.5 13.9201 2.5 14.3566 2.8146C14.7931 3.12919 14.9764 3.67921 15.3431 4.77924L16.25 7.5" stroke="#84909A" stroke-width="1.5" stroke-linejoin="round"/>
<path d="M3.74996 7.5H16.25C17.0476 8.34458 18.3333 9.52075 18.3333 10.833V13.7252C18.3333 14.2006 18.017 14.6007 17.5973 14.6562L15 15H4.99996L2.40259 14.6562C1.98292 14.6007 1.66663 14.2006 1.66663 13.7252V10.833C1.66663 9.52075 2.95228 8.34458 3.74996 7.5Z" stroke="#84909A" stroke-width="1.5" stroke-linejoin="round"/>
</svg>
