<svg width="25" height="25" viewBox="0 0 25 25" fill="none" xmlns="http://www.w3.org/2000/svg">
<path d="M14.9931 4.1645C15.7383 3.35713 16.1109 2.95345 16.5068 2.71798C17.4621 2.14981 18.6385 2.13214 19.6098 2.67137C20.0123 2.89485 20.3963 3.28717 21.1644 4.07181C21.9325 4.85645 22.3166 5.24877 22.5353 5.65998C23.0632 6.65217 23.0459 7.85384 22.4897 8.82975C22.2592 9.23421 21.864 9.61483 21.0737 10.3761L11.67 19.4334C10.1723 20.876 9.42343 21.5973 8.48749 21.9628C7.55155 22.3284 6.52264 22.3015 4.46479 22.2477L4.18481 22.2404C3.55834 22.224 3.2451 22.2158 3.06302 22.0091C2.88093 21.8025 2.90579 21.4834 2.95551 20.8453L2.98251 20.4988C3.12244 18.7026 3.1924 17.8046 3.54314 16.9973C3.89387 16.19 4.49887 15.5346 5.70886 14.2236L14.9931 4.1645Z" stroke="#5B636A" stroke-width="2.1694" stroke-linejoin="round"/>
<path d="M13.9194 4.27905L20.9194 11.2791" stroke="#5B636A" stroke-width="2.1694" stroke-linejoin="round"/>
<path d="M14.9194 22.2791H22.9194" stroke="#5B636A" stroke-width="2.1694" stroke-linecap="round" stroke-linejoin="round"/>
</svg>
