<svg width="27" height="26" viewBox="0 0 27 26" fill="none" xmlns="http://www.w3.org/2000/svg">
<path d="M4.09082 8.07129H7.24631" stroke="#B0BABF" stroke-width="1.57774" stroke-linecap="round" stroke-linejoin="round"/>
<path d="M4.09082 18.5896H10.4018" stroke="#B0BABF" stroke-width="1.57774" stroke-linecap="round" stroke-linejoin="round"/>
<path d="M19.8687 18.5896H23.0241" stroke="#B0BABF" stroke-width="1.57774" stroke-linecap="round" stroke-linejoin="round"/>
<path d="M16.7129 8.07129H23.0239" stroke="#B0BABF" stroke-width="1.57774" stroke-linecap="round" stroke-linejoin="round"/>
<path d="M7.24658 8.0715C7.24658 7.09132 7.24658 6.60124 7.40671 6.21464C7.62022 5.69919 8.02975 5.28966 8.5452 5.07615C8.9318 4.91602 9.42189 4.91602 10.4021 4.91602C11.3822 4.91602 11.8723 4.91602 12.259 5.07615C12.7744 5.28966 13.1839 5.69919 13.3975 6.21464C13.5576 6.60124 13.5576 7.09132 13.5576 8.0715C13.5576 9.05168 13.5576 9.54177 13.3975 9.92837C13.1839 10.4438 12.7744 10.8533 12.259 11.0669C11.8723 11.227 11.3822 11.227 10.4021 11.227C9.42189 11.227 8.9318 11.227 8.5452 11.0669C8.02975 10.8533 7.62022 10.4438 7.40671 9.92837C7.24658 9.54177 7.24658 9.05168 7.24658 8.0715Z" stroke="#B0BABF" stroke-width="1.57774"/>
<path d="M13.5576 18.5898C13.5576 17.6096 13.5576 17.1196 13.7177 16.7329C13.9312 16.2175 14.3408 15.8079 14.8562 15.5944C15.2429 15.4343 15.7329 15.4343 16.7131 15.4343C17.6933 15.4343 18.1834 15.4343 18.57 15.5944C19.0854 15.8079 19.495 16.2175 19.7085 16.7329C19.8686 17.1196 19.8686 17.6096 19.8686 18.5898C19.8686 19.57 19.8686 20.0601 19.7085 20.4467C19.495 20.9621 19.0854 21.3717 18.57 21.5852C18.1834 21.7453 17.6933 21.7453 16.7131 21.7453C15.7329 21.7453 15.2429 21.7453 14.8562 21.5852C14.3408 21.3717 13.9312 20.9621 13.7177 20.4467C13.5576 20.0601 13.5576 19.57 13.5576 18.5898Z" stroke="#B0BABF" stroke-width="1.57774"/>
</svg>
