<svg width="20" height="20" viewBox="0 0 20 20" fill="none" xmlns="http://www.w3.org/2000/svg">
<path d="M8.10602 1.66663C5.38835 1.66663 4.02951 1.66663 3.08585 2.33149C2.81548 2.52198 2.57544 2.74789 2.37304 3.00237C1.66663 3.89052 1.66663 5.16943 1.66663 7.72723V9.84846C1.66663 12.3178 1.66663 13.5524 2.05741 14.5385C2.68563 16.1238 4.01424 17.3742 5.69859 17.9655C6.74632 18.3333 8.05813 18.3333 10.6818 18.3333C12.181 18.3333 12.9306 18.3333 13.5293 18.1231C14.4918 17.7853 15.251 17.0707 15.61 16.1649C15.8333 15.6014 15.8333 14.8959 15.8333 13.4848V12.9166" stroke="#84909A" stroke-width="1.5" stroke-linecap="round" stroke-linejoin="round"/>
<path d="M12.5 6.25004C12.5 6.25004 12.9167 6.25004 13.3333 7.08337C13.3333 7.08337 14.6568 5.00004 15.8333 4.58337" stroke="#84909A" stroke-width="1.5" stroke-linecap="round" stroke-linejoin="round"/>
<path d="M18.3333 5.83329C18.3333 8.13448 16.4678 9.99996 14.1667 9.99996C11.8655 9.99996 10 8.13448 10 5.83329C10 3.53211 11.8655 1.66663 14.1667 1.66663C16.4678 1.66663 18.3333 3.53211 18.3333 5.83329Z" stroke="#84909A" stroke-width="1.5" stroke-linecap="round"/>
<path d="M1.66663 10C1.66663 11.5341 2.91028 12.7777 4.4444 12.7777C4.99923 12.7777 5.65333 12.6806 6.19277 12.8251C6.67206 12.9535 7.04643 13.3279 7.17486 13.8072C7.3194 14.3467 7.22218 15.0008 7.22218 15.5556C7.22218 17.0897 8.46588 18.3333 9.99996 18.3333" stroke="#84909A" stroke-width="1.5" stroke-linecap="round" stroke-linejoin="round"/>
</svg>
