<svg width="61" height="61" viewBox="0 0 61 61" fill="none" xmlns="http://www.w3.org/2000/svg">
<path d="M49.3083 49.3083L55.9167 55.9167M52.6125 37.7438C52.6125 29.5319 45.9556 22.875 37.7438 22.875C29.5319 22.875 22.875 29.5319 22.875 37.7438C22.875 45.9556 29.5319 52.6125 37.7438 52.6125C45.9556 52.6125 52.6125 45.9556 52.6125 37.7438Z" stroke="#141B34" stroke-width="5.08333" stroke-linecap="round" stroke-linejoin="round"/>
<path d="M5.0835 15.2499C5.41518 11.8555 6.16675 9.5726 7.8698 7.86955C9.57284 6.16651 11.8558 5.41494 15.2502 5.08325M15.2502 55.9166C11.8558 55.5849 9.57284 54.8333 7.8698 53.1302C6.16675 51.4272 5.41518 49.1443 5.0835 45.7499M55.9168 15.2499C55.5851 11.8555 54.8336 9.5726 53.1304 7.86955C51.4275 6.16651 49.1446 5.41494 45.7502 5.08325M5.0835 25.4166V35.5833M35.5835 5.08325H25.4168" stroke="#141B34" stroke-width="5.08333" stroke-linecap="round"/>
</svg>
