<svg width="20" height="20" viewBox="0 0 20 20" fill="none" xmlns="http://www.w3.org/2000/svg">
<path d="M1.66663 15C1.66663 13.7163 1.66663 13.0744 1.95557 12.6029C2.11724 12.339 2.33907 12.1172 2.6029 11.9555C3.07441 11.6666 3.71626 11.6666 4.99996 11.6666C6.28366 11.6666 6.92551 11.6666 7.39702 11.9555C7.66085 12.1172 7.88268 12.339 8.04435 12.6029C8.33329 13.0744 8.33329 13.7163 8.33329 15C8.33329 16.2836 8.33329 16.9255 8.04435 17.397C7.88268 17.6609 7.66085 17.8827 7.39702 18.0444C6.92551 18.3333 6.28366 18.3333 4.99996 18.3333C3.71626 18.3333 3.07441 18.3333 2.6029 18.0444C2.33907 17.8827 2.11724 17.6609 1.95557 17.397C1.66663 16.9255 1.66663 16.2836 1.66663 15Z" stroke="#252C32" stroke-width="1.5"/>
<path d="M11.6666 15C11.6666 13.7163 11.6666 13.0744 11.9555 12.6029C12.1172 12.339 12.339 12.1172 12.6029 11.9555C13.0744 11.6666 13.7163 11.6666 15 11.6666C16.2836 11.6666 16.9255 11.6666 17.397 11.9555C17.6609 12.1172 17.8827 12.339 18.0444 12.6029C18.3333 13.0744 18.3333 13.7163 18.3333 15C18.3333 16.2836 18.3333 16.9255 18.0444 17.397C17.8827 17.6609 17.6609 17.8827 17.397 18.0444C16.9255 18.3333 16.2836 18.3333 15 18.3333C13.7163 18.3333 13.0744 18.3333 12.6029 18.0444C12.339 17.8827 12.1172 17.6609 11.9555 17.397C11.6666 16.9255 11.6666 16.2836 11.6666 15Z" stroke="#252C32" stroke-width="1.5"/>
<path d="M1.66663 4.99996C1.66663 3.71626 1.66663 3.07441 1.95557 2.6029C2.11724 2.33907 2.33907 2.11724 2.6029 1.95557C3.07441 1.66663 3.71626 1.66663 4.99996 1.66663C6.28366 1.66663 6.92551 1.66663 7.39702 1.95557C7.66085 2.11724 7.88268 2.33907 8.04435 2.6029C8.33329 3.07441 8.33329 3.71626 8.33329 4.99996C8.33329 6.28366 8.33329 6.92551 8.04435 7.39702C7.88268 7.66085 7.66085 7.88268 7.39702 8.04435C6.92551 8.33329 6.28366 8.33329 4.99996 8.33329C3.71626 8.33329 3.07441 8.33329 2.6029 8.04435C2.33907 7.88268 2.11724 7.66085 1.95557 7.39702C1.66663 6.92551 1.66663 6.28366 1.66663 4.99996Z" stroke="#252C32" stroke-width="1.5"/>
<path d="M11.6666 4.99996C11.6666 3.71626 11.6666 3.07441 11.9555 2.6029C12.1172 2.33907 12.339 2.11724 12.6029 1.95557C13.0744 1.66663 13.7163 1.66663 15 1.66663C16.2836 1.66663 16.9255 1.66663 17.397 1.95557C17.6609 2.11724 17.8827 2.33907 18.0444 2.6029C18.3333 3.07441 18.3333 3.71626 18.3333 4.99996C18.3333 6.28366 18.3333 6.92551 18.0444 7.39702C17.8827 7.66085 17.6609 7.88268 17.397 8.04435C16.9255 8.33329 16.2836 8.33329 15 8.33329C13.7163 8.33329 13.0744 8.33329 12.6029 8.04435C12.339 7.88268 12.1172 7.66085 11.9555 7.39702C11.6666 6.92551 11.6666 6.28366 11.6666 4.99996Z" stroke="#252C32" stroke-width="1.5"/>
</svg>
