<svg width="15" height="15" viewBox="0 0 15 15" fill="none" xmlns="http://www.w3.org/2000/svg">
<path d="M9.34724 1.09351L9.69602 1.74554C9.93186 2.18636 10.0498 2.40677 9.97182 2.50117C9.89383 2.59556 9.63704 2.51933 9.12348 2.36686C8.61003 2.21441 8.0649 2.1324 7.5 2.1324C4.43942 2.1324 1.95834 4.54011 1.95834 7.5102C1.95834 8.48967 2.2282 9.40807 2.69971 10.1991M5.65278 13.9269L5.30396 13.2748C5.06813 12.834 4.95022 12.6135 5.02819 12.5192C5.10616 12.4248 5.36296 12.501 5.87652 12.6535C6.38998 12.8059 6.9351 12.8879 7.5 12.8879C10.5606 12.8879 13.0417 10.4802 13.0417 7.5102C13.0417 6.53067 12.7718 5.61228 12.3003 4.82128" stroke="#252C32" stroke-width="1.5" stroke-linecap="round" stroke-linejoin="round"/>
</svg>
